<svg viewbox="0 0 182.885 24.999" xmlns="http://www.w3.org/2000/svg" width="182.885" height="24.999">
  <g fill="#fff">
    <path d="M120.558 0h7.702v24.998h-7.702v-24.998zM28.036 0h12.638c8.297 0 11.272 6.161 11.272 12.464 0 7.701-4.062 12.535-12.778 12.535h-11.132v-24.999zm7.7 18.589h3.011c4.763 0 5.497-3.885 5.497-6.23 0-1.575-.455-5.951-6.055-5.951h-2.452v12.181zM55.03 0h12.639c8.297 0 11.272 6.161 11.272 12.465 0 7.7-4.062 12.533-12.778 12.533h-11.133v-24.998zm7.701 18.589h3.01c4.763 0 5.497-3.885 5.497-6.23 0-1.575-.454-5.952-6.055-5.952h-2.452v12.182zM94.345 0h7.702v8.682h7.211v-8.682h7.702v24.998h-7.702v-9.909h-7.211v9.909h-7.702v-24.998zM131.858 0h7.702v18.589h11.064v6.41h-18.767v-24.999zM153.457 0h7.702v18.589h11.06v6.409h-18.762v-24.998zM12.499-.001c-6.903 0-12.499 5.596-12.499 12.499 0 6.904 5.596 12.5 12.499 12.5 6.902 0 12.499-5.596 12.499-12.5 0-6.903-5.597-12.499-12.499-12.499zm0 18.081c-3.083 0-5.58-2.5-5.58-5.582 0-3.083 2.498-5.579 5.58-5.579 3.081 0 5.58 2.496 5.58 5.579 0 3.082-2.499 5.582-5.58 5.582zM178.955 17.134c-2.173 0-3.934 1.759-3.934 3.932 0 2.169 1.761 3.934 3.934 3.934 2.169 0 3.93-1.765 3.93-3.934 0-2.173-1.761-3.932-3.93-3.932z"/>
    </g>
  </svg>